#!OML:ASF I:\Actors\actors\Patient Classification 2\Patient 1\Session 1\actor1.ASF
:FULLY-SPECIFIED
:DEGREES
653
root -0.687001 18.5756 6.28395 -0.286696 -3.72053 -6.16263
lowerback 7.82858 0.56688 3.01371
upperback 0.0676297 1.13087 2.33966
thorax -4.31367 0.52029 0.604353
lowerneck -9.32818 -1.61789 -1.47556
upperneck 33.6645 -2.61972 1.61931
head 12.7765 -1.15571 0.5319
rclavicle -4.64261e-015 9.00743e-015
rhumerus -41.2613 1.53138 -85.9261
rradius 44.5524
rwrist 15.2187
rhand -8.54081 -36.2655
rfingers 7.12502
rthumb 17.3884 -425.508
lclavicle -4.64261e-015 9.00743e-015
lhumerus -39.422 2.7393 84.2923
lradius 37.9693
lwrist -19.293
lhand 4.36419 -21.7206
lfingers 7.12502
lthumb 29.7633 5.90922
rfemur 10.4122 2.68449 19.975
rtibia 2.70347e-014
rfoot -16.512 -11.0132
rtoes -14.03
lfemur -3.70499 -2.65017 -8.19135
ltibia 27.2828
lfoot -23.6606 9.45251
ltoes -57.0902
654
root -0.698623 18.5869 6.30407 -0.113022 -3.6721 -6.08465
lowerback 7.51594 0.558298 2.91503
upperback -0.165232 1.10157 2.26421
thorax -4.38083 0.505391 0.587274
lowerneck -9.30501 -1.65222 -1.49947
upperneck 33.0343 -2.6571 1.64321
head 12.5075 -1.1755 0.539142
rclavicle 7.40783e-016 2.82026e-014
rhumerus -41.4389 1.04468 -85.7282
rradius 44.6165
rwrist 15.3424
rhand -8.47965 -35.985
rfingers 7.12502
rthumb 17.4473 -425.222
lclavicle 7.40783e-016 2.82026e-014
lhumerus -39.3916 3.31741 84.185
lradius 38.2103
lwrist -19.1785
lhand 4.08198 -21.7918
lfingers 7.12502
lthumb 29.494 5.88596
rfemur 10.3047 2.6325 19.9157
rtibia 5.40694e-014
rfoot -16.6053 -10.97
rtoes -14.4313
lfemur -3.62718 -2.93134 -8.28746
ltibia 26.9249
lfoot -23.7165 9.64927
ltoes -57.0248
655
root -0.711164 18.5972 6.32412 0.102831 -3.60337 -6.01367
lowerback 7.11727 0.532706 2.79101
upperback -0.365075 1.04346 2.2058
thorax -4.36584 0.478098 0.605984
lowerneck -9.29951 -1.65154 -1.54185
upperneck 32.4174 -2.6618 1.73722
head 12.2528 -1.17413 0.580464
rclavicle 1.11816e-015 6.75868e-015
rhumerus -41.6019 0.684651 -85.6081
rradius 44.7778
rwrist 15.1925
rhand -8.22613 -35.8669
rfingers 7.12502
rthumb 17.6912 -425.082
lclavicle 1.11816e-015 6.75868e-015
lhumerus -39.3825 3.69467 84.261
lradius 38.693
lwrist -18.4711
lhand 3.65916 -21.7047
lfingers 7.12502
lthumb 29.0902 6.04348
rfemur 10.1651 2.55919 19.8661
rtibia 1.11319e-014
rfoot -16.7639 -10.8762
rtoes -14.2998
lfemur -3.62389 -3.14841 -8.35454
ltibia 26.6008
lfoot -23.6571 9.84146
ltoes -57.1199
656
root -0.724345 18.6056 6.34411 0.340971 -3.52901 -6.0372
lowerback 6.68017 0.497817 2.74205
upperback -0.555696 0.979819 2.19306
thorax -4.31882 0.44726 0.63053
lowerneck -9.31962 -1.63145 -1.5835
upperneck 31.871 -2.62914 1.79932
head 12.0346 -1.15931 0.613931
rclavicle -1.10419e-015 2.14687e-014
rhumerus -41.7901 0.473708 -85.5463
rradius 45.0224
rwrist 14.8727
rhand -7.75483 -35.8401
rfingers 7.12502
rthumb 18.1447 -425.014
lclavicle -1.10419e-015 2.14687e-014
lhumerus -39.3698 4.0281 84.4749
lradius 39.2382
lwrist -17.4234
lhand 2.99152 -21.7188
lfingers 7.12502
lthumb 28.4525 6.1378
rfemur 9.99716 2.47911 19.9224
rtibia 1.59028e-014
rfoot -16.9118 -10.7294
rtoes -13.4247
lfemur -3.66279 -3.3116 -8.29486
ltibia 26.2933
lfoot -23.5712 10.0259
ltoes -57.2638
657
root -0.736303 18.6123 6.36806 0.537682 -3.45351 -6.09378
lowerback 6.24889 0.456822 2.78857
upperback -0.748829 0.915333 2.16365
thorax -4.27564 0.413458 0.583823
lowerneck -9.35454 -1.60651 -1.54326
upperneck 31.4613 -2.57566 1.74896
head 11.8737 -1.13853 0.593532
rclavicle -1.3244e-014 -1.4561e-014
rhumerus -42.0601 0.341375 -85.5692
rradius 45.2896
rwrist 14.5353
rhand -7.29781 -35.757
rfingers 7.12502
rthumb 18.5844 -424.889
lclavicle -1.3244e-014 -1.4561e-014
lhumerus -39.4356 4.22151 84.7635
lradius 39.852
lwrist -16.1315
lhand 2.0152 -22.3086
lfingers 7.12502
lthumb 27.5191 5.70023
rfemur 9.87914 2.39846 20.0158
rtibia 3.97569e-014
rfoot -17.0082 -10.6366
rtoes -13.0541
lfemur -3.64145 -3.58778 -8.22161
ltibia 26.0071
lfoot -23.6455 10.1983
ltoes -57.1782
658
root -0.74639 18.6175 6.3951 0.700121 -3.37748 -6.06696
lowerback 5.82133 0.417508 2.79056
upperback -0.954502 0.848213 2.08959
thorax -4.24735 0.378571 0.51557
lowerneck -9.2898 -1.57512 -1.46888
upperneck 31.1137 -2.53449 1.73365
head 11.719 -1.11557 0.579794
rclavicle 8.84436e-015 2.08724e-015
rhumerus -42.4389 0.227206 -85.6639
rradius 45.5687
rwrist 14.2718
rhand -6.98435 -35.7325
rfingers 7.12502
rthumb 18.8859 -424.836
lclavicle 8.84436e-015 2.08724e-015
lhumerus -39.6137 4.13521 85.1702
lradius 40.5796
lwrist -14.6097
lhand 1.10419 -23.0086
lfingers 7.12502
lthumb 26.6476 5.13584
rfemur 9.80917 2.31857 20.0104
rtibia -3.65764e-014
rfoot -17.1632 -10.5587
rtoes -12.9903
lfemur -3.575 -4.03683 -8.27993
ltibia 25.748
lfoot -23.8598 10.4689
ltoes -57.0013
659
root -0.754583 18.6214 6.41944 0.85493 -3.39591 -6.03724
lowerback 5.40749 0.414059 2.77383
upperback -1.13062 0.827659 2.02625
thorax -4.19583 0.367669 0.464201
lowerneck -9.21613 -1.54341 -1.37844
upperneck 30.8021 -2.49412 1.70816
head 11.5776 -1.09223 0.559582
rclavicle -5.79504e-015 1.49089e-014
rhumerus -42.7949 0.163102 -85.7984
rradius 45.8482
rwrist 14.0643
rhand -6.65123 -35.8499
rfingers 7.12502
rthumb 19.2062 -424.922
lclavicle -5.79504e-015 1.49089e-014
lhumerus -39.7158 3.92166 85.7024
lradius 41.2929
lwrist -12.9159
lhand 1.02717 -22.7625
lfingers 7.12502
lthumb 26.5739 5.39316
rfemur 9.72648 2.33414 19.9925
rtibia 2.8625e-014
rfoot -17.3342 -10.472
rtoes -12.8424
lfemur -3.49021 -4.35975 -8.34649
ltibia 25.5023
lfoot -24.0668 10.7781
ltoes -56.9399
660
root -0.762593 18.625 6.4415 1.00251 -3.45675 -6.05741
lowerback 4.9952 0.445541 2.7917
upperback -1.24997 0.855184 1.98531
thorax -4.08538 0.380892 0.412535
lowerneck -9.29146 -1.53062 -1.31759
upperneck 30.5721 -2.46946 1.66591
head 11.5003 -1.07975 0.535412
rclavicle 2.12529e-015 4.96962e-016
rhumerus -43.0157 0.0791739 -85.9276
rradius 46.0269
rwrist 13.979
rhand -6.31818 -35.8349
rfingers 7.12502
rthumb 19.5265 -424.874
lclavicle 2.12529e-015 4.96962e-016
lhumerus -39.6933 3.66729 86.3003
lradius 41.9376
lwrist -11.3422
lhand 1.36748 -22.098
lfingers 7.12502
lthumb 26.8995 6.00792
rfemur 9.63295 2.39263 20.0275
rtibia 3.65764e-014
rfoot -17.4323 -10.4112
rtoes -12.8952
lfemur -3.40112 -4.58328 -8.35253
ltibia 25.2719
lfoot -24.2296 11.0197
ltoes -56.8735
661
root -0.770252 18.6269 6.46462 1.13924 -3.47437 -6.02787
lowerback 4.56712 0.473874 2.73792
upperback -1.35486 0.873307 1.95445
thorax -3.95205 0.39166 0.41268
lowerneck -9.35105 -1.5454 -1.39495
upperneck 30.325 -2.4886 1.73693
head 11.4181 -1.08924 0.571774
rclavicle -1.01636e-014 -6.95746e-015
rhumerus -43.224 -0.00559856 -86.0235
rradius 46.1484
rwrist 14.0041
rhand -6.26095 -35.7501
rfingers 7.12502
rthumb 19.5815 -424.784
lclavicle -1.01636e-014 -6.95746e-015
lhumerus -39.7033 3.25348 87.0236
lradius 42.5134
lwrist -10.0287
lhand 1.21936 -21.8005
lfingers 7.12502
lthumb 26.7578 6.32717
rfemur 9.5604 2.40838 20.0006
rtibia 7.95139e-015
rfoot -17.5371 -10.3077
rtoes -12.6815
lfemur -3.32923 -4.81213 -8.40839
ltibia 25.0706
lfoot -24.3596 11.1958
ltoes -56.8095
662
root -0.775818 18.6265 6.48775 1.26676 -3.49127 -5.96353
lowerback 4.16496 0.476232 2.66515
upperback -1.47583 0.857872 1.92385
thorax -3.85065 0.385798 0.426222
lowerneck -9.37816 -1.54639 -1.50652
upperneck 30.1273 -2.49241 1.84124
head 11.3495 -1.09184 0.628397
rclavicle -6.20814e-015 3.08116e-015
rhumerus -43.513 -0.00573557 -86.1652
rradius 46.2751
rwrist 14.0166
rhand -6.47436 -35.6571
rfingers 7.12502
rthumb 19.3763 -424.712
lclavicle -6.20814e-015 3.08116e-015
lhumerus -39.8033 2.73534 87.8262
lradius 43.09
lwrist -8.89357
lhand 0.576385 -22.0064
lfingers 7.12502
lthumb 26.1423 6.21384
rfemur 9.51078 2.42389 19.9247
rtibia 1.74931e-014
rfoot -17.6441 -10.1739
rtoes -12.3701
lfemur -3.26032 -5.0258 -8.5034
ltibia 24.8912
lfoot -24.5184 11.3501
ltoes -56.724
663
root -0.781039 18.6266 6.50874 1.42655 -3.47926 -5.94175
lowerback 3.80311 0.452441 2.6464
upperback -1.61996 0.813605 1.89745
thorax -3.79571 0.363747 0.415458
lowerneck -9.4418 -1.52243 -1.49611
upperneck 30.003 -2.44008 1.78516
head 11.312 -1.07401 0.611627
rclavicle 2.05773e-015 1.35174e-014
rhumerus -43.8109 0.0553726 -86.3731
rradius 46.348
rwrist 13.9822
rhand -6.56942 -35.4325
rfingers 7.12502
rthumb 19.2849 -424.496
lclavicle 2.05773e-015 1.35174e-014
lhumerus -39.8749 2.29378 88.5957
lradius 43.6052
lwrist -7.97851
lhand -0.247128 -22.8116
lfingers 7.12502
lthumb 25.3536 5.52291
rfemur 9.43202 2.41072 19.8949
rtibia 2.38542e-014
rfoot -17.6809 -10.0723
rtoes -12.2353
lfemur -3.24894 -5.36917 -8.56288
ltibia 24.7343
lfoot -24.7527 11.5801
ltoes -56.5659
664
root -0.786488 18.6264 6.52835 1.60758 -3.44788 -5.93522
lowerback 3.44365 0.43594 2.60902
upperback -1.75202 0.778898 1.89685
thorax -3.73003 0.347391 0.44078
lowerneck -9.50081 -1.50876 -1.43514
upperneck 29.8488 -2.38319 1.63005
head 11.2599 -1.06027 0.550432
rclavicle 4.33288e-015 2.93207e-014
rhumerus -44.0662 0.101763 -86.545
rradius 46.3766
rwrist 13.9776
rhand -6.43859 -35.2744
rfingers 7.12502
rthumb 19.4107 -424.326
lclavicle 4.33288e-015 2.93207e-014
lhumerus -39.864 1.89386 89.3921
lradius 43.9927
lwrist -7.32144
lhand -0.756272 -23.4937
lfingers 7.12502
lthumb 24.8658 4.90919
rfemur 9.31567 2.37822 19.8834
rtibia -3.18055e-015
rfoot -17.6991 -9.96243
rtoes -11.9496
lfemur -3.29575 -5.7169 -8.60067
ltibia 24.6153
lfoot -24.9956 11.8201
ltoes -56.4749
